{"glyphs":{"2":{"ha":770,"x_min":38,"x_max":716,"o":"m 184 624 l 60 624 q 396 977 65 966 q 705 684 689 960 q 439 358 716 483 l 336 298 q 174 114 190 217 l 705 114 l 705 0 l 38 0 q 266 385 43 266 l 396 461 q 575 689 586 559 q 380 863 564 857 q 184 624 190 863 z "},"4":{"ha":770,"x_min":33,"x_max":727,"o":"m 727 239 l 581 239 l 581 0 l 461 0 l 461 239 l 33 239 l 33 358 l 477 977 l 581 977 l 581 342 l 727 342 l 727 239 m 456 787 l 146 342 l 461 342 l 461 787 l 456 787 z "},"6":{"ha":770,"x_min":54,"x_max":722,"o":"m 700 716 l 581 716 q 412 863 553 863 q 179 505 201 852 l 184 499 q 412 618 250 618 q 722 309 711 597 q 624 65 722 168 q 380 -16 553 -22 q 125 114 212 -11 q 54 450 54 233 q 412 977 65 966 q 700 716 673 960 m 195 298 q 401 81 206 87 q 591 304 581 92 q 396 510 581 505 q 195 298 206 505 z "}," ":{"ha":385,"x_min":0,"x_max":0,"o":""},"F":{"ha":841,"x_min":119,"x_max":808,"o":"m 255 450 l 255 0 l 119 0 l 119 993 l 808 993 l 808 879 l 255 879 l 255 570 l 743 570 l 743 450 l 255 450 z "},"L":{"ha":770,"x_min":103,"x_max":743,"o":"m 239 993 l 239 119 l 743 119 l 743 0 l 103 0 l 103 993 l 239 993 z "}," ":{"ha":385,"x_min":0,"x_max":0,"o":""}," ":{"ha":567,"x_min":0,"x_max":0,"o":""}," ":{"ha":1134,"x_min":0,"x_max":0,"o":""}," ":{"ha":567,"x_min":0,"x_max":0,"o":""}," ":{"ha":1134,"x_min":0,"x_max":0,"o":""}," ":{"ha":378,"x_min":0,"x_max":0,"o":""}," ":{"ha":283,"x_min":0,"x_max":0,"o":""}," ":{"ha":189,"x_min":0,"x_max":0,"o":""}," ":{"ha":189,"x_min":0,"x_max":0,"o":""}," ":{"ha":142,"x_min":0,"x_max":0,"o":""}," ":{"ha":227,"x_min":0,"x_max":0,"o":""}," ":{"ha":62,"x_min":0,"x_max":0,"o":""}," ":{"ha":227,"x_min":0,"x_max":0,"o":""}," ":{"ha":283,"x_min":0,"x_max":0,"o":""},"◼":{"ha":732,"x_min":0,"x_max":732,"o":"m 0 732 l 732 732 l 732 0 l 0 0 l 0 732 z "},"中":{"ha":1389,"x_min":168,"x_max":1221,"o":"m 624 1118 q 781 1096 781 1107 q 776 1074 781 1090 q 760 1015 760 1042 q 754 841 754 933 l 933 841 q 1221 852 1096 841 q 1204 602 1210 727 l 1204 456 q 1221 228 1210 282 l 1074 228 q 1080 315 1080 277 l 754 315 l 754 65 q 765 -141 760 -76 l 629 -141 q 635 65 635 -92 l 635 315 l 304 315 q 309 217 304 277 l 168 217 q 184 456 179 282 l 184 602 q 168 852 179 770 q 439 841 277 846 l 635 841 q 624 1118 635 1053 m 754 418 l 1080 418 l 1080 743 l 754 743 l 754 418 m 635 743 l 304 743 l 304 418 l 635 418 l 635 743 z "},"以":{"ha":1389,"x_min":141,"x_max":1313,"o":"m 998 1085 q 1166 1042 1177 1058 q 1161 1025 1166 1036 q 1145 955 1145 987 q 1025 298 1112 494 q 1096 239 1047 277 q 1313 38 1286 71 l 1199 -54 q 1172 -11 1183 -27 q 971 212 1058 125 q 499 -114 825 0 q 412 -22 467 -71 q 380 0 391 -5 q 890 293 743 49 q 1009 1015 1004 477 q 998 1080 1009 1042 q 998 1085 1004 1074 m 190 1015 q 342 987 347 1009 q 331 960 342 982 q 315 911 320 928 l 315 217 q 526 456 374 260 q 602 342 548 385 q 244 -33 401 168 l 141 81 q 157 98 146 87 q 201 190 201 146 l 201 884 q 190 1015 206 928 m 570 949 q 819 667 700 830 l 705 586 q 467 863 575 781 l 570 949 z "},"作":{"ha":1389,"x_min":54,"x_max":1308,"o":"m 743 1107 q 873 1058 863 1080 q 852 1025 868 1047 q 825 998 830 1009 q 798 949 819 987 q 760 879 776 906 l 1096 879 q 1308 890 1204 879 l 1308 776 q 1090 787 1259 781 l 863 787 l 863 570 l 1069 570 q 1253 581 1150 570 l 1253 467 q 1069 477 1166 477 l 863 477 l 863 239 l 1090 239 q 1280 250 1199 244 l 1280 136 q 1090 146 1204 141 l 863 146 l 863 65 q 873 -119 863 -65 l 743 -119 q 754 81 754 -22 l 754 787 l 711 787 l 570 532 q 456 581 521 564 q 743 1107 635 803 m 358 1101 q 488 1036 494 1058 q 472 1015 488 1025 q 439 971 450 993 q 369 808 391 863 l 369 114 q 374 0 369 87 q 374 -81 374 -65 l 260 -81 q 271 114 271 11 l 271 640 l 141 418 q 54 510 114 450 q 358 1101 244 743 z "},"你":{"ha":1389,"x_min":27,"x_max":1318,"o":"m 363 1118 q 407 1096 380 1112 q 499 1031 515 1042 q 483 1015 499 1025 q 363 841 423 977 l 363 71 q 369 -109 363 -76 q 369 -114 369 -109 l 250 -114 q 250 -109 250 -114 q 255 71 255 -71 l 255 662 q 109 439 152 499 q 54 510 92 472 q 27 537 33 526 q 363 1118 228 722 m 705 1096 q 787 1074 738 1085 q 852 1047 857 1053 q 841 1025 852 1036 q 743 879 792 977 l 1085 879 q 1318 890 1161 879 q 1253 722 1297 830 q 1183 543 1204 591 q 1058 564 1134 564 q 1166 781 1107 629 l 689 781 l 537 526 q 423 581 499 559 q 705 1096 618 787 m 803 711 q 944 689 939 711 q 939 678 944 689 q 917 564 917 629 l 917 -5 q 694 -130 955 -114 q 646 0 684 -49 q 640 0 646 0 q 814 38 830 -33 l 814 564 q 803 711 814 678 m 608 472 q 656 461 624 467 q 738 434 743 439 q 722 412 738 423 q 689 374 700 396 q 656 293 678 347 q 532 27 597 136 q 418 76 477 60 q 608 472 548 255 m 1090 467 q 1194 282 1123 412 q 1308 81 1259 163 q 1177 22 1270 76 q 987 423 1090 271 l 1090 467 z "},"便":{"ha":1389,"x_min":43,"x_max":1313,"o":"m 326 1118 q 472 1063 472 1080 q 467 1053 472 1058 q 429 987 445 1031 q 385 884 412 949 q 353 814 358 830 l 353 103 q 363 -114 353 -27 q 363 -125 363 -114 l 228 -125 q 228 -109 228 -119 q 239 103 239 -22 l 239 570 q 125 374 195 472 l 43 472 q 326 1118 233 705 m 477 1025 q 494 1025 477 1025 q 673 1009 575 1009 l 1080 1009 q 1286 1025 1221 1009 q 1297 1025 1286 1025 l 1297 901 q 1286 901 1297 901 q 1074 917 1199 917 l 917 917 l 917 803 l 1085 803 q 1232 814 1199 803 q 1221 673 1221 798 l 1221 434 q 1232 309 1221 336 q 1096 315 1215 315 l 911 315 q 830 103 890 190 q 1313 5 949 22 q 1232 -130 1264 -33 q 765 27 939 -71 q 472 -130 667 -43 q 369 -27 434 -76 q 673 87 537 -5 q 575 184 651 103 q 510 250 532 228 l 618 304 q 743 152 656 239 q 803 315 781 206 l 646 315 q 499 304 526 315 q 510 445 510 336 l 510 673 q 499 814 510 787 q 656 803 537 803 l 814 803 l 814 917 l 673 917 q 494 906 570 917 q 477 906 483 906 l 477 1025 m 613 722 l 613 602 l 814 602 l 814 722 l 613 722 m 917 722 l 917 602 l 1118 602 l 1118 722 l 917 722 m 613 532 l 613 407 l 814 407 l 814 532 l 613 532 m 917 532 l 917 407 l 1118 407 l 1118 532 l 917 532 z "},"先":{"ha":1389,"x_min":65,"x_max":1302,"o":"m 646 1123 q 787 1107 776 1123 q 781 1085 787 1096 q 765 1020 765 1058 l 765 873 l 944 873 q 1166 884 1112 873 l 1166 765 q 1101 765 1156 765 q 939 770 982 770 l 770 770 l 770 570 l 1047 570 q 1302 581 1215 575 l 1302 461 q 1047 472 1226 467 l 857 472 l 857 43 q 933 5 857 11 q 1139 43 1118 5 q 1161 195 1161 92 q 1297 119 1237 136 q 1204 -60 1253 -22 q 895 -87 1139 -98 q 743 16 738 -87 l 743 472 l 581 472 q 483 81 559 179 q 168 -136 418 -22 q 157 -119 163 -130 q 76 -22 119 -54 q 374 130 298 22 q 467 472 456 222 l 320 472 q 65 461 146 472 l 65 586 q 320 570 152 575 l 656 570 l 656 770 l 363 770 q 288 651 320 705 q 266 662 282 656 q 168 711 212 694 q 358 1085 288 836 q 499 1025 483 1047 q 401 873 445 998 l 656 873 l 656 1015 q 646 1123 656 1053 z "},"可":{"ha":1389,"x_min":65,"x_max":1329,"o":"m 65 1047 q 326 1036 163 1036 l 1128 1036 q 1329 1047 1221 1036 l 1329 922 q 1128 933 1242 933 l 1080 933 l 1080 -16 q 825 -109 1063 -103 q 765 38 819 -38 q 955 65 960 0 l 955 933 l 326 933 q 65 922 163 933 l 65 1047 m 374 656 l 374 401 l 635 401 l 635 656 l 374 656 m 244 770 q 374 765 320 760 l 613 765 q 760 770 694 760 q 754 651 754 700 l 754 288 q 760 179 754 217 l 618 179 q 618 184 618 179 q 629 293 629 239 l 374 293 l 374 244 q 385 119 374 163 l 244 119 q 250 228 250 163 l 250 651 q 244 770 255 700 z "},"在":{"ha":1389,"x_min":22,"x_max":1313,"o":"m 618 1128 q 656 1118 635 1123 q 765 1085 770 1101 q 754 1069 765 1080 q 662 911 716 1025 l 1031 911 q 1313 922 1248 911 l 1313 798 q 1031 808 1264 803 l 618 808 q 445 548 559 705 q 423 515 429 526 l 423 16 q 429 -136 429 -141 l 298 -136 q 309 27 309 -76 l 309 396 q 125 228 184 271 q 22 315 71 288 q 309 537 174 407 l 304 629 q 380 624 342 629 q 499 808 434 684 l 380 808 q 217 803 320 808 q 119 803 146 803 l 119 928 q 380 917 244 917 l 548 917 q 618 1128 597 1015 m 798 716 q 933 705 917 722 q 928 673 933 694 q 917 608 917 646 l 917 477 l 1031 477 q 1248 483 1096 477 l 1248 363 q 1226 363 1248 363 q 1031 374 1074 374 l 917 374 l 917 38 l 1053 38 q 1297 49 1248 43 l 1297 -60 q 1221 -60 1280 -60 q 1053 -54 1112 -54 l 646 -54 q 456 -65 543 -54 l 456 49 q 640 43 494 43 q 808 38 743 38 l 808 374 q 521 363 602 374 l 521 483 q 808 477 651 477 q 798 716 808 624 z "},"地":{"ha":1389,"x_min":49,"x_max":1345,"o":"m 852 1004 q 846 1118 852 1031 q 987 1096 971 1118 q 982 1085 987 1096 q 955 955 955 1042 l 955 732 q 1237 841 1150 792 q 1242 841 1237 841 q 1248 830 1253 841 q 1242 689 1242 749 q 1237 537 1242 646 q 1226 320 1232 374 q 1036 212 1215 233 q 982 353 1020 293 q 1112 401 1139 320 q 1112 423 1112 401 q 1123 678 1123 602 l 955 629 l 955 304 q 966 136 955 201 q 966 119 966 125 l 841 119 q 841 136 841 125 q 852 304 852 206 l 852 597 l 705 548 l 705 87 q 819 0 684 -16 l 1031 0 q 1226 168 1226 -38 q 1345 87 1275 114 q 1259 -71 1302 -49 q 1074 -103 1215 -103 l 787 -103 q 602 38 570 -125 l 602 510 l 488 456 l 456 586 l 602 624 l 602 781 q 597 928 602 895 q 738 906 722 922 q 727 884 738 901 q 705 808 705 846 l 705 656 l 852 705 l 852 1004 m 222 1058 q 380 1031 369 1053 q 369 1009 380 1025 q 336 895 336 966 l 336 716 l 358 716 q 477 727 423 716 q 488 727 483 727 l 488 608 q 472 608 483 608 q 353 618 418 618 l 336 618 l 336 190 l 505 266 l 510 141 l 103 -22 l 49 92 l 233 152 l 233 618 l 217 618 q 81 608 146 618 q 65 608 71 608 l 65 727 q 71 727 65 727 q 217 716 130 716 l 233 716 l 233 884 q 222 1036 233 960 q 222 1058 222 1053 z "},"室":{"ha":1389,"x_min":103,"x_max":1286,"o":"m 738 1101 q 792 944 770 1036 l 1150 944 q 1259 955 1199 944 q 1270 955 1259 955 q 1259 846 1259 928 l 1259 808 q 1270 684 1259 732 l 1134 684 q 1145 814 1145 738 l 1145 846 l 255 846 l 255 803 q 266 684 255 738 l 130 684 q 141 803 141 738 l 141 857 q 130 955 141 928 q 255 944 195 944 l 656 944 q 618 1031 651 982 q 591 1085 602 1063 l 738 1101 m 298 754 q 472 743 369 743 l 890 743 q 1096 754 1031 743 l 1096 635 q 895 646 1053 646 l 716 646 q 635 581 694 635 q 483 467 532 488 q 917 488 667 472 q 819 559 879 521 l 901 613 q 1118 450 944 591 q 1188 396 1172 412 l 1090 315 q 1069 342 1085 320 q 1015 407 1036 385 l 749 396 l 749 260 l 955 260 q 1172 277 1112 260 l 1172 152 q 949 163 1101 163 l 749 163 l 749 27 l 1047 27 q 1286 43 1210 27 l 1286 -76 q 1047 -60 1215 -60 l 342 -60 q 103 -76 163 -60 l 103 43 q 342 27 168 27 l 635 27 l 635 163 l 401 163 q 212 152 255 163 l 212 271 q 396 260 260 260 l 635 260 l 635 391 q 537 385 608 385 q 271 347 342 374 l 228 456 q 358 483 288 461 q 553 646 483 553 l 477 646 q 298 635 347 646 l 298 754 z "},"工":{"ha":1389,"x_min":92,"x_max":1297,"o":"m 1199 960 l 1199 836 q 982 841 1166 841 l 754 841 l 754 114 l 1031 114 q 1297 125 1204 114 l 1297 0 q 1036 11 1204 11 l 315 11 q 92 0 152 11 l 92 125 q 309 114 163 119 l 635 114 l 635 841 l 423 841 q 195 830 277 841 l 195 960 q 423 955 233 955 l 977 955 q 1199 960 1156 955 z "},"建":{"ha":1389,"x_min":54,"x_max":1318,"o":"m 760 1107 q 895 1096 879 1107 q 890 1085 895 1096 q 863 977 863 1053 l 1069 977 q 1145 982 1118 977 q 1156 966 1156 982 q 1145 803 1150 901 q 1280 819 1221 803 q 1291 819 1280 819 l 1291 716 q 1275 716 1286 716 q 1145 722 1221 722 q 1150 640 1145 689 q 1156 559 1150 586 q 1139 543 1150 548 q 1031 548 1107 548 l 863 548 l 863 445 l 1004 445 q 1128 456 1042 445 q 1161 456 1156 456 l 1161 358 q 1123 363 1156 358 q 998 369 1036 369 l 863 369 l 863 260 l 1025 260 q 1183 271 1080 260 q 1210 277 1204 277 l 1210 168 q 1194 168 1210 168 q 1031 184 1090 184 l 863 184 q 873 65 863 130 q 873 43 873 49 l 749 43 q 754 65 749 49 q 765 184 765 130 l 597 184 q 477 174 532 184 q 461 174 467 174 l 461 271 q 483 271 467 271 q 602 260 548 260 l 765 260 l 765 369 l 640 369 q 532 363 581 369 q 505 358 510 358 l 505 456 q 640 445 548 445 l 765 445 l 765 548 l 635 548 q 532 543 559 548 l 532 635 q 629 624 543 629 l 765 624 l 765 722 l 608 722 q 477 711 537 722 q 461 711 467 711 l 461 808 q 483 808 467 808 q 608 798 543 798 l 765 798 l 765 895 l 624 895 q 537 890 581 895 q 515 890 521 890 l 515 982 q 537 982 521 982 q 635 971 581 971 l 765 971 q 760 1107 765 1063 m 114 971 q 130 971 119 971 q 266 960 190 960 l 326 960 q 456 971 401 960 q 271 597 380 732 l 461 613 q 363 174 423 293 q 673 33 505 49 q 1318 49 846 5 q 1302 16 1318 43 q 1248 -76 1264 -38 q 602 -49 765 -81 q 315 92 439 -22 q 168 -71 233 -16 q 54 -11 130 -38 q 250 163 152 27 q 157 304 206 222 q 109 391 130 353 l 212 445 q 293 255 217 380 q 353 515 326 331 q 168 488 233 510 q 152 483 157 483 l 114 597 q 125 597 114 597 q 320 879 217 586 l 260 879 q 130 868 190 879 q 114 868 119 868 l 114 971 m 863 901 l 863 798 l 1042 798 l 1042 901 l 863 901 m 863 722 l 863 624 l 1042 624 l 1042 722 l 863 722 z "},"我":{"ha":1389,"x_min":60,"x_max":1302,"o":"m 705 1123 q 863 1107 857 1123 q 857 1090 863 1101 q 836 971 841 1047 q 830 727 830 911 l 1118 727 q 1275 732 1248 727 l 1275 624 q 1118 629 1253 629 l 830 629 q 890 282 846 434 q 1058 564 1009 434 q 1188 488 1183 505 q 1166 467 1188 477 q 1128 434 1139 450 q 1107 401 1123 423 q 933 190 1020 271 q 1134 5 1009 54 q 1177 163 1166 5 q 1302 71 1242 92 q 1188 -130 1242 -130 q 852 114 1020 -130 q 581 -49 727 22 q 494 33 548 0 q 483 38 494 33 q 803 206 656 92 q 732 629 738 412 l 456 629 l 456 434 q 624 488 532 450 q 662 499 651 494 l 656 374 q 586 358 629 369 q 456 331 543 353 l 456 16 q 222 -114 477 -87 q 190 0 222 -54 q 184 16 184 11 q 353 71 347 0 l 353 304 q 103 217 184 260 l 60 353 q 353 412 212 374 l 353 629 l 228 629 q 76 624 103 629 l 76 732 q 222 727 98 727 l 353 727 l 353 906 q 266 879 358 901 q 141 852 190 863 q 81 960 119 911 q 564 1074 315 966 q 613 1025 581 1053 q 662 960 673 966 q 629 949 656 949 q 456 928 548 949 l 456 727 l 727 727 q 705 1123 727 944 m 1042 1053 q 1199 846 1128 960 l 1090 776 q 939 982 1036 884 l 1042 1053 z "},"星":{"ha":1389,"x_min":71,"x_max":1286,"o":"m 1161 1074 q 1150 884 1150 1020 l 1150 770 q 1161 570 1150 597 q 960 581 1090 581 l 776 581 l 776 456 l 1009 456 q 1204 467 1123 456 l 1204 347 q 1009 358 1150 358 l 776 358 l 776 244 l 966 244 q 1150 255 1096 244 l 1150 141 q 966 146 1123 146 l 776 146 l 776 22 l 1096 22 q 1275 38 1194 22 q 1286 38 1280 38 l 1286 -71 q 1101 -60 1226 -60 l 277 -60 q 87 -71 141 -60 l 87 33 q 282 22 190 22 l 656 22 l 656 146 l 456 146 q 293 136 326 146 l 293 255 q 450 244 331 244 l 656 244 l 656 358 l 298 358 q 184 201 222 250 q 71 260 130 250 q 293 564 212 347 q 429 526 401 548 q 412 505 429 521 q 358 450 380 483 l 656 450 l 656 581 l 429 581 q 228 570 282 581 q 233 613 228 581 q 239 743 239 684 l 239 922 q 228 1074 239 1015 q 418 1063 320 1063 l 911 1063 q 1161 1074 1058 1063 m 358 960 l 358 857 l 1031 857 l 1031 960 l 358 960 m 358 770 l 358 667 l 1031 667 l 1031 770 l 358 770 z "},"正":{"ha":1389,"x_min":71,"x_max":1308,"o":"m 179 1020 q 434 1009 320 1009 l 960 1009 q 1221 1020 1080 1009 l 1221 895 q 966 906 1134 901 l 776 906 l 776 575 l 928 575 q 1161 586 1074 575 l 1161 467 q 939 477 1042 477 l 776 477 l 776 81 l 1069 81 q 1308 92 1242 81 l 1308 -27 q 1074 -16 1199 -16 l 277 -16 q 71 -27 190 -16 l 71 92 q 271 81 174 81 l 298 81 q 298 271 298 141 q 293 689 304 640 q 434 673 429 689 q 429 656 434 667 q 412 597 418 629 q 407 81 412 168 l 662 81 l 662 906 l 434 906 q 179 895 271 901 l 179 1020 z "},"球":{"ha":1389,"x_min":33,"x_max":1335,"o":"m 803 1134 q 944 1112 933 1123 q 939 1101 944 1112 q 922 1063 922 1080 l 922 863 l 1112 863 q 1297 873 1232 863 l 1297 760 q 1112 770 1237 770 l 922 770 q 1025 472 960 586 q 1166 673 1085 532 q 1280 581 1275 608 q 1264 570 1280 575 q 1204 537 1232 559 q 1063 385 1128 456 q 1335 71 1166 179 q 1226 0 1286 49 q 1210 -5 1215 -5 q 922 537 1004 174 l 922 -33 q 722 -136 922 -136 q 716 -119 722 -130 q 673 -11 700 -43 q 814 43 825 -38 l 814 336 q 559 27 624 130 q 553 16 559 27 q 445 103 450 98 q 456 114 445 103 q 814 477 624 228 l 814 770 l 705 770 q 521 765 564 770 l 521 879 q 700 863 581 863 l 814 863 l 814 1036 q 803 1134 814 1101 m 1107 1112 q 1204 955 1145 1069 l 1090 906 q 998 1058 1058 993 l 1107 1112 m 65 966 q 217 955 92 955 l 347 955 q 494 966 429 955 l 494 846 q 363 857 450 857 l 331 857 l 331 608 q 423 613 369 608 q 483 613 461 613 l 483 499 q 331 510 418 510 l 331 228 q 505 309 450 277 q 505 195 499 244 q 98 -5 195 60 q 87 -11 98 -5 q 33 114 60 76 q 49 119 33 114 q 228 184 119 141 l 228 510 q 76 499 114 510 l 76 618 q 109 613 87 618 q 228 608 168 608 l 228 857 l 217 857 q 65 846 136 857 l 65 966 m 629 656 q 754 477 667 608 l 646 418 q 532 602 629 461 l 629 656 z "},"的":{"ha":1389,"x_min":125,"x_max":1275,"o":"m 857 1128 q 1004 1069 1004 1085 q 993 1058 1004 1063 q 966 1025 971 1047 q 890 857 917 944 l 1090 857 q 1275 863 1210 857 q 1221 27 1232 152 q 922 -136 1204 -125 q 857 5 906 -54 q 1080 11 1004 -22 q 1134 494 1118 5 q 1150 770 1145 667 l 852 770 q 722 532 798 667 q 624 575 673 564 l 624 87 q 629 -87 624 -49 l 505 -87 q 510 43 510 -38 l 244 43 q 250 -98 244 -38 l 125 -98 q 130 81 130 -49 l 130 662 q 125 765 130 684 q 125 852 125 836 q 244 846 206 846 l 282 846 q 309 1112 298 933 q 450 1074 461 1096 q 439 1053 450 1063 q 423 1025 429 1042 q 391 917 407 987 q 374 846 380 873 l 467 846 q 629 852 510 846 q 624 678 624 814 l 624 602 q 857 1128 792 792 m 244 760 l 244 477 l 510 477 l 510 760 l 244 760 m 857 537 q 971 336 890 494 q 998 288 993 304 l 895 233 q 765 483 879 298 l 857 537 m 244 396 l 244 130 l 510 130 l 510 396 l 244 396 z "},"设":{"ha":1389,"x_min":60,"x_max":1318,"o":"m 271 1069 q 418 868 380 933 l 326 798 q 179 993 271 895 l 271 1069 m 1080 765 q 1291 787 1118 727 l 1275 646 q 993 646 1096 624 q 966 901 960 662 q 966 960 966 939 l 738 960 q 575 581 765 689 q 467 656 537 624 q 613 781 591 716 q 618 1063 640 836 q 673 1063 629 1063 q 776 1058 743 1058 l 944 1058 q 1090 1069 1031 1063 q 1080 890 1085 993 q 1080 765 1074 781 m 60 716 q 76 716 65 716 q 201 705 146 705 q 342 716 298 705 q 331 570 331 673 l 331 141 q 467 288 401 201 l 515 179 q 271 -43 331 22 l 190 33 q 222 163 222 60 l 222 602 l 195 602 q 76 591 141 602 q 60 591 65 591 l 60 716 m 477 564 q 505 564 483 564 q 640 553 581 553 l 993 553 q 1194 564 1139 559 q 949 125 1101 293 q 1318 43 1090 60 q 1242 -87 1275 -5 q 863 60 1025 -33 q 477 -109 700 -38 q 385 -5 434 -38 q 776 125 591 16 q 559 385 640 250 l 667 418 q 678 401 667 412 q 857 184 754 271 q 1025 456 977 309 l 646 456 q 510 445 581 456 q 477 445 483 445 l 477 564 z "},"逛":{"ha":1389,"x_min":38,"x_max":1313,"o":"m 711 1090 q 825 1025 765 1058 q 667 857 716 911 q 754 380 776 613 q 510 98 765 130 q 439 239 510 163 q 651 597 711 179 q 434 326 575 461 q 342 407 407 380 q 618 700 505 515 q 586 787 613 743 q 483 694 575 770 q 423 646 445 662 q 347 722 401 689 q 336 732 347 722 q 537 857 391 749 q 396 982 483 928 q 488 1058 445 1015 q 608 944 570 982 q 694 1063 635 977 q 711 1090 705 1085 m 260 1047 q 320 933 282 1004 q 380 808 369 841 l 244 765 q 146 998 228 879 l 260 1047 m 71 635 q 157 629 76 635 l 239 629 q 331 635 288 629 q 326 494 326 570 l 326 309 l 326 125 q 711 27 586 33 q 1313 60 1101 5 q 1253 -87 1253 -11 q 526 -38 738 -92 q 407 0 483 -27 q 282 33 320 38 q 157 -103 206 0 q 38 -5 125 -65 q 190 103 87 22 q 222 130 212 119 l 222 521 l 152 521 q 71 515 109 521 l 71 635 m 803 987 q 911 982 819 982 l 1128 982 q 1259 987 1194 982 l 1259 884 q 1150 890 1199 890 l 1074 890 l 1074 646 l 1128 646 q 1253 651 1199 646 l 1253 548 q 1145 553 1221 553 l 1074 553 l 1074 250 l 1150 250 q 1264 255 1215 250 l 1264 152 q 1172 157 1215 157 l 890 157 q 770 152 776 157 l 770 260 q 890 250 819 250 l 966 250 l 966 553 l 922 553 q 808 543 857 553 l 808 651 q 928 646 863 646 l 966 646 l 966 890 l 890 890 q 803 884 846 890 l 803 987 z "},"随":{"ha":1389,"x_min":125,"x_max":1345,"o":"m 944 1112 q 966 1107 949 1112 q 1080 1069 1085 1080 q 1063 1053 1080 1063 q 1036 1015 1047 1031 q 1009 955 1025 993 q 993 933 998 939 l 1090 933 q 1291 944 1188 933 l 1291 836 q 1090 846 1150 846 l 955 846 q 873 722 928 803 l 1031 722 q 1232 732 1139 722 q 1242 722 1242 738 q 1237 548 1237 667 l 1237 119 q 1058 49 1232 65 q 1009 163 1047 103 q 1139 168 1128 146 l 1139 266 l 911 266 l 911 233 q 917 76 911 168 l 808 76 q 819 255 819 190 l 819 651 q 792 624 808 646 q 749 581 770 597 q 651 635 705 618 q 846 846 754 711 l 830 846 q 760 841 808 846 q 711 841 727 841 l 711 944 q 841 939 711 939 l 884 939 q 944 1112 911 993 m 624 971 q 711 754 673 841 l 597 722 q 515 949 564 863 l 624 971 m 244 960 l 244 38 q 244 -43 244 60 q 255 -114 250 -87 l 130 -114 q 141 38 141 -27 l 141 928 q 125 1069 141 982 q 250 1058 206 1058 l 407 1058 q 537 1069 456 1053 q 391 613 439 765 q 505 298 526 423 q 304 141 472 163 q 260 277 293 228 q 401 369 401 228 q 288 591 401 467 q 391 960 326 673 l 244 960 m 911 635 l 911 526 l 1139 526 l 1139 635 l 911 635 m 483 613 q 521 613 494 613 q 591 608 564 608 l 678 608 l 678 119 q 928 11 776 38 q 1345 27 1080 -5 l 1286 -103 q 884 -76 1036 -103 q 700 0 781 -54 q 640 22 662 22 q 515 -92 586 11 l 407 0 q 439 11 418 0 q 586 109 499 49 l 586 505 q 483 499 483 505 l 483 613 m 911 450 l 911 336 l 1139 336 l 1139 450 l 911 450 z "},"，":{"ha":1389,"x_min":244,"x_max":450,"o":"m 450 222 l 450 5 q 260 -184 434 -179 l 260 -98 q 331 11 331 -81 l 244 11 l 244 222 l 450 222 z "}}}
